<svg id="visual" viewBox="0 0 900 600" width="900" height="600" xmlns="http://www.w3.org/2000/svg" xmlns:xlink="http://www.w3.org/1999/xlink" version="1.1"><rect x="0" y="0" width="900" height="600" fill="#fff"></rect><defs><linearGradient id="grad1_0" x1="33.3%" y1="0%" x2="100%" y2="100%"><stop offset="20%" stop-color="#ffffff" stop-opacity="1"></stop><stop offset="80%" stop-color="#ffffff" stop-opacity="1"></stop></linearGradient></defs><defs><linearGradient id="grad2_0" x1="0%" y1="0%" x2="66.7%" y2="100%"><stop offset="20%" stop-color="#ffffff" stop-opacity="1"></stop><stop offset="80%" stop-color="#ffffff" stop-opacity="1"></stop></linearGradient></defs><g transform="translate(900, 0)"><path d="M0 486.7C-71.6 488.4 -143.1 490.1 -186.3 449.7C-229.4 409.3 -244.2 326.7 -275.1 275.1C-305.9 223.4 -352.8 202.6 -390.8 161.9C-428.8 121.2 -457.8 60.6 -486.7 0L0 0Z" fill="#0066FF"></path></g><g transform="translate(0, 600)"><path d="M0 -486.7C69.9 -486.2 139.8 -485.7 186.3 -449.7C232.7 -413.7 255.7 -342.3 293.4 -293.4C331.2 -244.6 383.8 -218.5 418.5 -173.4C453.2 -128.2 470 -64.1 486.7 0L0 0Z" fill="#0066FF"></path></g></svg>