<svg id="visual" viewBox="0 0 900 600" width="900" height="600" xmlns="http://www.w3.org/2000/svg" xmlns:xlink="http://www.w3.org/1999/xlink" version="1.1"><rect x="0" y="0" width="900" height="600" fill="#001220"></rect><defs><linearGradient id="grad1_0" x1="33.3%" y1="0%" x2="100%" y2="100%"><stop offset="20%" stop-color="#001220" stop-opacity="1"></stop><stop offset="80%" stop-color="#001220" stop-opacity="1"></stop></linearGradient></defs><defs><linearGradient id="grad2_0" x1="0%" y1="0%" x2="66.7%" y2="100%"><stop offset="20%" stop-color="#001220" stop-opacity="1"></stop><stop offset="80%" stop-color="#001220" stop-opacity="1"></stop></linearGradient></defs><g transform="translate(900, 0)"><path d="M0 486.7C-56 453.2 -112.1 419.7 -161.9 390.8C-211.7 361.9 -255.2 337.7 -306.9 306.9C-358.6 276 -418.4 238.5 -449.7 186.3C-481 134 -483.9 67 -486.7 0L0 0Z" fill="#a4133c"></path></g><g transform="translate(0, 600)"><path d="M0 -486.7C67.4 -484.6 134.8 -482.5 186.3 -449.7C237.8 -416.9 273.4 -353.3 299.8 -299.8C326.3 -246.3 343.6 -202.9 373.2 -154.6C402.9 -106.3 444.8 -53.2 486.7 0L0 0Z" fill="#a4133c"></path></g></svg>