<svg id="visual" viewBox="0 0 900 600" width="900" height="600" xmlns="http://www.w3.org/2000/svg" xmlns:xlink="http://www.w3.org/1999/xlink" version="1.1"><rect x="0" y="0" width="900" height="600" fill="#001220"></rect><defs><linearGradient id="grad1_0" x1="33.3%" y1="0%" x2="100%" y2="100%"><stop offset="20%" stop-color="#a4133c" stop-opacity="1"></stop><stop offset="80%" stop-color="#a4133c" stop-opacity="1"></stop></linearGradient></defs><defs><linearGradient id="grad1_1" x1="33.3%" y1="0%" x2="100%" y2="100%"><stop offset="20%" stop-color="#a4133c" stop-opacity="1"></stop><stop offset="80%" stop-color="#7a1852" stop-opacity="1"></stop></linearGradient></defs><defs><linearGradient id="grad1_2" x1="33.3%" y1="0%" x2="100%" y2="100%"><stop offset="20%" stop-color="#462152" stop-opacity="1"></stop><stop offset="80%" stop-color="#7a1852" stop-opacity="1"></stop></linearGradient></defs><defs><linearGradient id="grad1_3" x1="33.3%" y1="0%" x2="100%" y2="100%"><stop offset="20%" stop-color="#462152" stop-opacity="1"></stop><stop offset="80%" stop-color="#181e3f" stop-opacity="1"></stop></linearGradient></defs><defs><linearGradient id="grad1_4" x1="33.3%" y1="0%" x2="100%" y2="100%"><stop offset="20%" stop-color="#001220" stop-opacity="1"></stop><stop offset="80%" stop-color="#181e3f" stop-opacity="1"></stop></linearGradient></defs><defs><linearGradient id="grad2_0" x1="0%" y1="0%" x2="66.7%" y2="100%"><stop offset="20%" stop-color="#a4133c" stop-opacity="1"></stop><stop offset="80%" stop-color="#a4133c" stop-opacity="1"></stop></linearGradient></defs><defs><linearGradient id="grad2_1" x1="0%" y1="0%" x2="66.7%" y2="100%"><stop offset="20%" stop-color="#7a1852" stop-opacity="1"></stop><stop offset="80%" stop-color="#a4133c" stop-opacity="1"></stop></linearGradient></defs><defs><linearGradient id="grad2_2" x1="0%" y1="0%" x2="66.7%" y2="100%"><stop offset="20%" stop-color="#7a1852" stop-opacity="1"></stop><stop offset="80%" stop-color="#462152" stop-opacity="1"></stop></linearGradient></defs><defs><linearGradient id="grad2_3" x1="0%" y1="0%" x2="66.7%" y2="100%"><stop offset="20%" stop-color="#181e3f" stop-opacity="1"></stop><stop offset="80%" stop-color="#462152" stop-opacity="1"></stop></linearGradient></defs><defs><linearGradient id="grad2_4" x1="0%" y1="0%" x2="66.7%" y2="100%"><stop offset="20%" stop-color="#181e3f" stop-opacity="1"></stop><stop offset="80%" stop-color="#001220" stop-opacity="1"></stop></linearGradient></defs><g transform="translate(900, 0)"><path d="M0 486.7C-67 484.4 -134 482.1 -186.3 449.7C-238.6 417.3 -276.1 354.9 -300.5 300.5C-324.9 246.2 -336.1 199.9 -364.9 151.2C-393.8 102.4 -440.3 51.2 -486.7 0L0 0Z" fill="#071930"></path><path d="M0 389.4C-53.6 387.5 -107.2 385.7 -149 359.8C-190.8 333.8 -220.9 283.9 -240.4 240.4C-259.9 196.9 -268.9 159.9 -291.9 120.9C-315 81.9 -352.2 41 -389.4 0L0 0Z" fill="#2d214b"></path><path d="M0 292C-40.2 290.6 -80.4 289.3 -111.8 269.8C-143.1 250.4 -165.7 212.9 -180.3 180.3C-194.9 147.7 -201.7 119.9 -219 90.7C-236.3 61.5 -264.2 30.7 -292 0L0 0Z" fill="#601e55"></path><path d="M0 194.7C-26.8 193.8 -53.6 192.8 -74.5 179.9C-95.4 166.9 -110.5 141.9 -120.2 120.2C-130 98.5 -134.4 80 -146 60.5C-157.5 41 -176.1 20.5 -194.7 0L0 0Z" fill="#911149"></path><path d="M0 97.3C-13.4 96.9 -26.8 96.4 -37.3 89.9C-47.7 83.5 -55.2 71 -60.1 60.1C-65 49.2 -67.2 40 -73 30.2C-78.8 20.5 -88.1 10.2 -97.3 0L0 0Z" fill="#a4133c"></path></g><g transform="translate(0, 600)"><path d="M0 -486.7C66.7 -475.4 133.3 -464.1 177.2 -427.8C221 -391.4 242.1 -330 289.9 -289.9C337.8 -249.8 412.4 -231 449.7 -186.3C487 -141.5 486.9 -70.8 486.7 0L0 0Z" fill="#071930"></path><path d="M0 -389.4C53.3 -380.3 106.7 -371.3 141.7 -342.2C176.8 -313.1 193.7 -264 231.9 -231.9C270.2 -199.9 329.9 -184.8 359.8 -149C389.6 -113.2 389.5 -56.6 389.4 0L0 0Z" fill="#2d214b"></path><path d="M0 -292C40 -285.3 80 -278.5 106.3 -256.7C132.6 -234.8 145.2 -198 173.9 -173.9C202.7 -149.9 247.5 -138.6 269.8 -111.8C292.2 -84.9 292.1 -42.5 292 0L0 0Z" fill="#601e55"></path><path d="M0 -194.7C26.7 -190.2 53.3 -185.6 70.9 -171.1C88.4 -156.6 96.8 -132 116 -116C135.1 -99.9 165 -92.4 179.9 -74.5C194.8 -56.6 194.7 -28.3 194.7 0L0 0Z" fill="#911149"></path><path d="M0 -97.3C13.3 -95.1 26.7 -92.8 35.4 -85.6C44.2 -78.3 48.4 -66 58 -58C67.6 -50 82.5 -46.2 89.9 -37.3C97.4 -28.3 97.4 -14.2 97.3 0L0 0Z" fill="#a4133c"></path></g></svg>